<svg width="200" height="32" viewBox="0 0 200 32" fill="none" xmlns="http://www.w3.org/2000/svg">
<g clip-path="url(#clip0_4820_264)">
<path d="M132.552 15.1965C132.417 17.4919 131.239 19.3844 128.553 20.6558C127.942 20.9442 128.014 21.2052 128.292 21.5929C129.203 22.8764 130.092 24.1676 130.976 25.4618C131.442 26.141 131.347 26.2417 130.328 26.2448C128.915 26.2478 127.501 26.2234 126.09 26.2722C125.193 26.3027 124.711 26.0662 124.415 25.4328C123.932 24.4011 123.323 23.4014 122.801 22.3789C122.592 21.9698 122.3 21.7501 121.664 21.7959C121.049 21.8401 120.426 21.834 119.807 21.834C118.533 21.8325 118.442 21.8935 118.307 22.8611C118.183 23.7448 118.04 24.627 117.924 25.5122C117.862 25.9822 117.632 26.2448 116.893 26.231C115.584 26.2051 114.273 26.228 112.964 26.2661C112.185 26.289 111.93 26.0814 112.03 25.5045C112.483 22.8856 112.896 20.262 113.328 17.6415C113.683 15.4987 114.053 13.359 114.397 11.2162C114.583 10.0563 114.573 10.0685 116.162 10.0685C118.676 10.0685 121.192 10.0425 123.706 10.0196C124.988 10.009 126.262 10.0868 127.507 10.2959C130.976 10.8743 132.67 12.5394 132.552 15.1965ZM121.59 18.3069C122.267 18.3375 123.16 18.3329 124.046 18.2215C125.842 17.9941 127.103 16.7533 126.973 15.3369C126.865 14.1694 125.792 13.5726 123.731 13.562C122.77 13.5574 121.807 13.6123 120.846 13.5971C120.099 13.5849 119.798 13.8474 119.734 14.3602C119.637 15.1416 119.494 15.92 119.395 16.7014C119.194 18.2673 119.2 18.2673 121.59 18.3069Z" fill="#364050"/>
<path d="M65.8058 26.2444C63.6829 26.713 62.5294 25.9361 62.0385 24.3336C61.8438 23.6972 61.3551 23.1127 61.0734 22.4854C60.8642 22.0184 60.4956 21.8383 59.8494 21.8627C59.3337 21.8825 58.8139 21.8474 58.2961 21.8398C56.8422 21.82 56.6745 21.9421 56.5316 23.044C56.426 23.8529 56.2706 24.6587 56.1712 25.4691C56.0987 26.0689 55.8088 26.3711 54.8768 26.3238C53.6073 26.2582 52.3253 26.2902 51.0516 26.3192C50.2977 26.336 50.1962 26.0598 50.2729 25.6019C50.6187 23.5339 50.9418 21.4644 51.2877 19.3963C51.7143 16.8491 52.1844 14.3064 52.5779 11.7577C52.8865 9.76445 52.843 10.0819 55.0529 10.085C57.7432 10.088 60.4335 10.0987 63.1238 10.1124C64.6211 10.1201 66.0771 10.2864 67.444 10.7748C69.6952 11.5776 70.7805 12.9191 70.8032 14.7384C70.8364 17.2719 69.6559 19.3689 66.6673 20.7745C66.1682 21.0095 66.2697 21.2217 66.4851 21.5285C67.3839 22.8166 68.2662 24.1123 69.1423 25.4111C69.6807 26.2109 69.6145 26.2918 68.3635 26.307C67.5703 26.3116 66.7771 26.2689 65.8058 26.2444ZM65.1555 15.7457C65.2777 14.5003 64.4617 13.7677 62.7427 13.6731C61.5435 13.6074 60.3361 13.6471 59.1349 13.5952C58.3831 13.5632 58.0745 13.8058 57.9938 14.3217C57.8177 15.4526 57.621 16.5835 57.4201 17.7129C57.3434 18.1479 57.4822 18.3875 58.1719 18.3631C59.2695 18.3249 60.3693 18.3341 61.469 18.3188C63.6602 18.2883 64.9981 17.3528 65.1555 15.7457Z" fill="#364050"/>
<path d="M103.975 15.0515C104.282 13.3177 104.626 11.6175 104.864 9.9097C104.953 9.27785 105.32 9.07486 106.113 9.09623C107.285 9.12828 108.459 9.15423 109.629 9.13439C110.499 9.12065 110.684 9.42742 110.586 9.98754C110.259 11.851 109.959 13.7176 109.644 15.5811C109.103 18.7815 108.55 21.979 108.029 25.1809C107.857 26.2325 107.842 26.26 106.392 26.2523C105.394 26.2478 104.392 26.2478 103.396 26.2935C102.47 26.3363 101.981 26.1547 102.281 25.3961C102.314 25.3107 102.269 25.2069 102.252 25.0237C101.126 25.6434 100.022 26.144 98.7087 26.3256C94.5666 26.8979 91.2384 25.2466 90.6068 22.1621C90.1242 19.8056 90.8449 17.6109 92.9243 15.7246C95.2294 13.6336 100.591 12.5073 103.975 15.0515ZM96.2276 20.4207C96.1655 21.5379 96.8158 22.5009 97.9218 22.8336C99.299 23.2472 100.579 23.0656 101.65 22.3208C103.008 21.3746 103.42 20.1628 103.114 18.8395C102.838 17.6491 101.757 17.0524 100.123 17.0752C97.9777 17.1058 96.3333 18.5175 96.2276 20.4207Z" fill="#364050"/>
<path d="M181.493 20.6312C181.855 14.1678 190.84 12.2417 196.378 14.2898C199.31 15.3735 200.547 17.8276 199.776 20.5977C198.279 25.9821 189.972 27.4992 185.001 25.5411C182.62 24.604 181.392 22.8641 181.493 20.6312ZM194.195 19.685C194.276 18.4549 193.658 17.5452 192.509 17.2003C191.078 16.7699 189.347 17.1057 188.33 18.0703C187.375 18.9768 187.017 20.0238 187.333 21.1578C187.725 22.5634 189.241 23.2334 191.128 22.8687C192.917 22.5237 194.087 21.3104 194.195 19.685Z" fill="#364050"/>
<path d="M141.08 26.3773C138.475 26.2567 136.011 25.6783 134.617 23.7721C133.14 21.7575 133.486 19.6605 134.697 17.6672C136.75 14.2867 142.143 12.6704 146.882 13.9189C149.578 14.6286 151.204 16.4219 151.158 18.9126C151.111 21.4889 151.222 21.1027 148.209 21.1562C145.66 21.2004 143.108 21.1562 140.557 21.1592C140.229 21.1592 139.815 21.0417 139.606 21.3118C139.384 21.5988 139.683 21.8491 139.871 22.081C140.552 22.9281 142.046 23.3112 143.615 23.0578C144.537 22.9082 145.409 22.6534 146.14 22.2184C146.689 21.8918 147.031 21.9864 147.412 22.3588C147.805 22.7434 148.207 23.1341 148.687 23.4577C149.464 23.9796 149.187 24.3246 148.489 24.7199C146.339 25.9393 143.889 26.3987 141.08 26.3773ZM141.368 18.8119C142.472 18.7936 143.539 18.7692 144.608 18.7615C145.738 18.7539 145.993 18.4716 145.552 17.681C144.813 16.3578 142.184 16.2204 140.697 17.4444C140.291 17.7787 139.68 18.1907 139.892 18.6074C140.091 19.0011 140.888 18.7127 141.368 18.8119Z" fill="#364050"/>
<path d="M82.3245 13.6413C88.0924 13.5756 90.091 17.1332 89.2357 20.6191C89.0969 21.1884 88.6081 21.1945 88.0282 21.1914C85.3752 21.1792 82.7201 21.1746 80.0671 21.1655C79.7564 21.1639 79.4354 21.1227 79.1392 21.17C78.6919 21.2418 78.0188 21.0434 77.8469 21.4478C77.675 21.8523 78.1203 22.2185 78.5179 22.5024C79.5845 23.267 80.8996 23.1953 82.2148 23.0274C82.7947 22.9542 83.387 22.8016 83.8095 22.51C84.7249 21.8797 85.4083 22.0339 86.0359 22.7405C86.1664 22.8885 86.3527 23.0076 86.5122 23.1419C87.7611 24.1873 87.7611 24.2728 86.1332 25.0527C83.4553 26.3362 80.5227 26.7117 77.4223 26.205C73.9202 25.6327 72.0024 23.9019 71.9651 21.109C71.934 18.6899 73.0586 16.567 75.7655 15.0423C77.6791 13.9679 79.8683 13.5283 82.3245 13.6413ZM80.8582 18.8471C80.8582 18.8304 80.8603 18.8151 80.8603 18.7983C81.4443 18.8136 82.0284 18.8319 82.6124 18.841C83.998 18.8624 84.3376 18.458 83.7018 17.5514C83.5237 17.2965 83.2607 17.1088 82.9355 16.9516C81.173 16.1061 78.9363 17.0035 78.1431 18.3771C77.9546 18.7037 78.2301 18.7785 78.5925 18.7876C79.3484 18.809 80.1023 18.8288 80.8582 18.8471Z" fill="#364050"/>
<path d="M157.947 26.4109C155.895 26.301 153.875 25.95 152.065 25.0556C151.398 24.726 151.301 24.4222 151.751 23.94C152.219 23.4378 152.633 22.9067 153.035 22.3741C153.356 21.9483 153.689 21.8781 154.265 22.1665C155.385 22.7281 156.618 23.128 157.97 23.2852C158.411 23.3371 158.867 23.3875 159.306 23.3554C159.942 23.3096 160.724 23.3066 160.849 22.6854C160.973 22.0566 160.178 21.9864 159.629 21.8353C158.533 21.5301 157.386 21.321 156.307 20.9898C152.77 19.9001 152.088 17.0049 154.913 15.0666C157.183 13.5083 159.96 13.3145 162.86 13.6152C164.301 13.7647 165.666 14.1234 166.942 14.6621C167.478 14.8895 167.596 15.1246 167.24 15.5138C166.644 16.167 166.267 17.0247 165.461 17.4566C164.471 17.9877 163.607 17.0079 162.605 16.8599C161.696 16.7256 160.822 16.4722 159.869 16.5577C159.287 16.6096 158.713 16.7301 158.631 17.2109C158.556 17.6428 159.126 17.7817 159.554 17.9282C159.927 18.0564 160.329 18.1419 160.72 18.238C161.505 18.4319 162.303 18.6013 163.075 18.8165C166.965 19.8955 167.652 23.0548 164.43 25.0312C162.568 26.1697 160.348 26.4399 157.947 26.4109Z" fill="#364050"/>
<path d="M179.018 14.2713C181.408 14.3446 181.164 14.0012 180.938 15.8983C180.799 17.0734 180.756 17.0689 179.169 17.1208C178.929 17.1284 178.689 17.1559 178.449 17.1681C176.361 17.2642 176.353 17.2627 176.115 18.7828C175.959 19.7657 175.804 20.7501 175.698 21.736C175.595 22.7189 176.11 23.0394 177.415 22.8608C179.078 22.6334 179.078 22.6334 179.316 23.891C179.668 25.7438 179.573 25.8476 177.042 26.2139C175.684 26.4108 174.323 26.5298 172.954 26.2154C170.825 25.7255 169.62 24.4572 169.814 22.7143C169.976 21.2736 170.255 19.8405 170.537 18.4089C170.757 17.2917 170.769 17.2505 169.297 17.1574C168.675 17.1192 168.418 16.959 168.553 16.4859C168.638 16.1898 168.644 15.8815 168.679 15.5778C168.822 14.3553 168.82 14.3385 170.448 14.2454C171.009 14.2133 171.229 14.0348 171.291 13.6425C171.407 12.913 171.583 12.1865 171.703 11.457C171.767 11.0648 172.008 10.8847 172.554 10.8542C173.967 10.7748 175.377 10.8313 176.79 10.8587C177.374 10.8709 177.44 11.1487 177.38 11.4921C177.281 12.0705 177.204 12.6536 177.082 13.2289C176.87 14.2255 176.875 14.2362 178.289 14.253C178.536 14.2561 178.776 14.2652 179.018 14.2713Z" fill="#364050"/>
<path d="M18.2729 16.0205C19.3333 15.8862 20.4019 15.9533 21.4644 15.9808C24.1775 16.051 26.8843 16.1914 29.585 16.3807C33.0685 16.6264 36.5375 16.9622 39.9941 17.3773C40.4104 17.4277 40.4829 17.5818 40.4808 17.8458C40.4539 19.9474 39.816 21.9315 38.5071 23.8072C37.3328 25.4906 35.7091 26.8886 33.7085 28.0531C32.209 28.9261 30.459 29.184 28.5909 29.065C26.6752 28.9429 24.8837 28.4973 23.1482 27.9036C21.6777 27.3999 20.2922 26.791 18.9543 26.1164C18.7534 26.0141 18.6498 25.9088 18.6602 25.7165C18.7182 24.6314 17.9374 23.8759 16.7424 23.3799C15.5805 22.8976 14.284 22.687 12.9358 22.69C12.3994 22.6916 11.9065 22.7969 11.4446 22.9785C10.9931 23.1555 10.8357 23.4714 10.8171 23.8286C10.7943 24.2483 11.0076 24.6268 11.2706 24.9809C11.8754 25.7974 12.6769 26.501 13.729 27.0245C14.7521 27.5327 15.8642 27.7143 17.0655 27.374C17.3078 27.3053 17.5169 27.2061 17.693 27.0718C17.9436 26.8825 18.1797 26.8734 18.4717 27.0336C19.7599 27.7418 21.162 28.308 22.6055 28.8254C24.2334 29.4099 25.8902 29.9441 27.5781 30.4233C27.8122 30.4905 28.0545 30.5515 28.2761 30.637C28.7939 30.8369 29.001 31.1529 28.8601 31.4917C28.7172 31.829 28.2388 32.0457 27.69 31.9923C26.9403 31.919 26.1947 31.8229 25.445 31.7465C21.746 31.3696 18.0368 31.2246 14.311 31.4825C13.5136 31.5375 12.7183 31.6046 11.923 31.6657C11.4239 31.7038 11.0449 31.5375 10.8689 31.2002C10.6514 30.782 10.7425 30.5118 11.1837 30.2753C11.2561 30.2371 11.3348 30.2036 11.4032 30.1623C11.7118 29.9746 11.6828 29.8251 11.31 29.7136C10.2496 29.3977 9.20786 29.0543 8.24482 28.5949C3.75477 26.4521 1.11831 23.4135 0.204974 19.5506C-6.05548e-05 18.6883 -0.0187001 17.8123 0.0123658 16.9347C0.0247921 16.5837 0.341664 16.5684 0.673033 16.5425C2.36923 16.4082 4.06336 16.2662 5.76162 16.1487C7.31492 16.0403 8.87028 16.0281 10.4215 16.1884C12.7701 16.4295 14.7687 17.2415 16.6264 18.2747C18.1921 19.1462 19.5652 20.1748 20.9922 21.1608C21.2034 21.3073 21.2718 21.463 21.2676 21.6812C21.249 22.4367 21.8931 22.922 22.6118 23.3692C24.1153 24.3048 25.9503 24.7611 27.7273 25.3029C27.7811 25.3197 27.8391 25.3334 27.8971 25.3441C28.0151 25.3639 28.1435 25.3838 28.214 25.2876C28.3072 25.1594 28.1601 25.1121 28.0504 25.0602C27.3358 24.7275 26.6213 24.3948 25.9027 24.0667C25.1964 23.7446 24.4881 23.4287 23.7778 23.1128C23.5562 23.0136 23.3677 22.9022 23.5417 22.6961C23.7136 22.4947 23.9642 22.5221 24.2065 22.6214C24.9976 22.9434 25.7846 23.273 26.5778 23.5935C27.2136 23.8515 27.8536 24.1033 28.4977 24.3521C28.6468 24.4101 28.8374 24.5108 28.9616 24.3414C29.0652 24.1979 28.8746 24.1262 28.7462 24.0606C27.8163 23.5935 26.8843 23.1296 25.9524 22.6656C25.5837 22.4825 25.2151 22.2978 24.8464 22.1146C24.7719 22.078 24.6952 22.0429 24.629 22.0002C24.4364 21.875 24.2976 21.727 24.4778 21.5454C24.6476 21.3744 24.8775 21.434 25.0763 21.521C25.7266 21.8064 26.3728 22.0948 27.0169 22.3878C27.7853 22.7373 28.5474 23.0929 29.3116 23.444C29.4338 23.5004 29.5767 23.5935 29.7072 23.4791C29.8501 23.3539 29.7072 23.2593 29.5829 23.1769C28.4791 22.4504 27.369 21.7285 26.1305 21.1257C25.4056 20.7731 24.6103 20.5304 23.7674 20.3839C23.3159 20.3061 22.852 20.2893 22.4171 20.4496C22.1893 20.5335 21.9801 20.5137 21.7958 20.3977C20.4703 19.5598 19.0412 18.8074 17.9125 17.8077C17.6847 17.6047 17.4735 17.3956 17.3223 17.1545C16.9743 16.6035 17.1897 16.2433 17.9726 16.077C18.0699 16.0556 18.1714 16.0388 18.2729 16.0205Z" fill="#364050"/>
<path d="M26.2009 2.67995C26.8823 4.52361 26.0539 5.89414 24.3805 7.05253C23.579 7.60655 22.6718 8.06288 21.7606 8.51464C19.5031 9.6364 18.1031 11.1382 18.0513 13.2108C18.0492 13.3298 18.0658 13.4504 18.0844 13.5694C18.1155 13.7724 18.0389 13.9601 17.7945 14.0456C17.5294 14.1387 17.3492 13.9708 17.2042 13.8365C15.4563 12.2233 15.1829 10.7978 16.6554 8.97708C17.43 8.01862 18.451 7.18684 19.209 6.22075C19.4783 5.87735 19.6957 5.52175 19.8076 5.13256C19.9422 4.66097 19.6916 4.47019 19.0682 4.59839C18.364 4.74491 17.7344 5.0181 17.0945 5.27145C15.9575 5.72168 14.835 6.19175 13.5613 6.41305C13.1823 6.47868 12.7991 6.49394 12.4118 6.4802C11.5026 6.44815 10.9227 6.07576 10.6141 5.47749C10.0301 4.34657 10.2041 3.22175 10.7633 2.11372C11.0843 1.47882 11.6227 0.944649 12.2296 0.445579C12.3269 0.36469 12.4429 0.291432 12.5671 0.236489C12.8426 0.115918 13.0352 0.169336 13.0435 0.419634C13.0518 0.746242 13.0497 1.0759 13.0166 1.40251C12.9896 1.66502 13 1.92295 13.0393 2.18546C13.1615 3.02334 14.0272 3.40337 15.1166 3.12102C16.498 2.76084 17.6267 2.10151 18.8052 1.49561C19.9463 0.90802 21.0523 0.273118 22.4606 0.0472391C23.5023 -0.119118 24.3867 0.147969 25.0246 0.785924C25.3187 1.08048 25.5403 1.39641 25.7474 1.72149C25.971 2.07099 26.1326 2.4327 26.2009 2.67995Z" fill="#364050"/>
<path d="M12.7183 10.9428C12.8715 11.915 13.8304 12.6415 14.7562 13.3817C14.7873 13.4061 14.8225 13.426 14.8515 13.4504C14.9778 13.5649 15.2243 13.6702 15.1062 13.8304C14.9778 14.0044 14.7148 13.9327 14.5015 13.8884C12.9523 13.5664 11.4819 13.1146 10.1812 12.4019C9.19749 11.8616 8.3877 11.2343 8.16196 10.2911C7.97142 9.49752 8.46433 8.96945 9.19956 8.66573C10.0031 8.33455 11.0138 8.51769 11.6206 9.0366C12.1695 9.50515 12.3828 9.86686 12.7183 10.9428Z" fill="#364050"/>
<path d="M21.0377 14.3036C20.6919 14.3662 20.3502 14.4379 20.0022 14.4883C19.8282 14.5142 19.6315 14.5157 19.5197 14.3875C19.4016 14.2517 19.5321 14.1418 19.6315 14.0319C19.909 13.7267 20.3274 13.5298 20.6919 13.2917C21.4126 12.8186 22.1064 12.3348 22.5952 11.7075C22.8831 11.3382 23.2745 11.0192 23.728 10.7506C23.8999 10.6499 24.0926 10.5598 24.2914 10.4942C25.2151 10.192 26.1098 10.63 26.1077 11.3733C26.1056 11.9349 25.7515 12.3897 25.2379 12.7621C24.0698 13.6092 22.591 14.0213 21.0377 14.3036Z" fill="#364050"/>
</g>
<defs>
<clipPath id="clip0_4820_264">
<rect width="200" height="32" fill="white"/>
</clipPath>
</defs>
</svg>
