<svg width="314" height="529" viewBox="0 0 314 529" fill="none" xmlns="http://www.w3.org/2000/svg">
<path d="M169.419 476.239C141.182 476.239 115.531 470.871 92.4645 460.133C69.3981 449.395 49.911 435.078 34.0031 417.181C18.0952 398.887 6.76085 378.804 0 356.93L42.9513 340.824C53.2914 371.049 69.3981 394.115 91.2714 410.023C113.145 425.533 139.194 433.288 169.419 433.288C188.508 433.288 205.212 430.305 219.529 424.34C234.243 417.977 245.578 409.227 253.532 398.092C261.486 386.956 265.463 374.031 265.463 359.317C265.463 337.443 259.497 320.541 247.566 308.61C235.635 296.679 218.534 287.532 196.263 281.169L116.326 257.307C84.9083 248.16 60.6488 232.849 43.5478 211.373C26.8445 189.898 18.4929 165.439 18.4929 137.998C18.4929 114.534 24.2595 93.8538 35.7927 75.9574C47.3259 57.6634 63.035 43.3463 82.9198 33.0062C103.202 22.6661 126.07 17.496 151.523 17.496C178.168 17.496 202.03 22.4672 223.108 32.4096C244.584 41.9544 262.679 54.6807 277.394 70.5885C292.108 86.4964 302.647 104.194 309.011 123.681L267.252 140.384C257.708 114.136 242.794 94.2515 222.511 80.7298C202.627 67.2081 179.162 60.4472 152.119 60.4472C135.018 60.4472 119.906 63.43 106.782 69.3955C94.0553 75.3609 84.1129 83.9114 76.9544 95.0469C69.7958 106.182 66.2165 119.306 66.2165 134.419C66.2165 152.713 71.9831 169.217 83.5164 183.932C95.0496 198.249 112.747 208.987 136.609 216.146L207.001 237.025C241.999 247.365 268.445 262.278 286.342 281.766C304.238 301.253 313.186 325.711 313.186 355.141C313.186 379.003 307.022 400.08 294.693 418.375C282.763 436.271 265.86 450.389 243.987 460.729C222.511 471.069 197.655 476.239 169.419 476.239ZM143.767 528.735V-35H185.526V528.735H143.767Z" fill="url(#paint0_linear_416_965)"/>
<defs>
<linearGradient id="paint0_linear_416_965" x1="17.145" y1="497.578" x2="440.06" y2="262.625" gradientUnits="userSpaceOnUse">
<stop stop-color="#F0F6FF"/>
<stop offset="1" stop-color="#FCFDFF"/>
</linearGradient>
</defs>
</svg>
