<svg width="175" height="202" viewBox="0 0 175 202" fill="none" xmlns="http://www.w3.org/2000/svg">
<path d="M94.6667 172.667C78.8889 172.667 64.5555 169.667 51.6667 163.667C38.7778 157.667 27.8889 149.667 19 139.667C10.1111 129.444 3.77778 118.222 0 106L24 97C29.7778 113.889 38.7778 126.778 51 135.667C63.2222 144.333 77.7778 148.667 94.6667 148.667C105.333 148.667 114.667 147 122.667 143.667C130.889 140.111 137.222 135.222 141.667 129C146.111 122.778 148.333 115.556 148.333 107.333C148.333 95.1111 145 85.6667 138.333 79C131.667 72.3333 122.111 67.2222 109.667 63.6667L65 50.3333C47.4444 45.2222 33.8889 36.6667 24.3333 24.6667C15 12.6667 10.3333 -0.999992 10.3333 -16.3333C10.3333 -29.4444 13.5556 -41 20 -51C26.4444 -61.2222 35.2222 -69.2222 46.3333 -75C57.6667 -80.7778 70.4444 -83.6667 84.6667 -83.6667C99.5555 -83.6667 112.889 -80.8889 124.667 -75.3333C136.667 -70 146.778 -62.8889 155 -54C163.222 -45.1111 169.111 -35.2222 172.667 -24.3333L149.333 -15C144 -29.6667 135.667 -40.7778 124.333 -48.3333C113.222 -55.8889 100.111 -59.6667 85 -59.6667C75.4444 -59.6667 67 -58 59.6667 -54.6667C52.5556 -51.3333 47 -46.5556 43 -40.3333C39 -34.1111 37 -26.7778 37 -18.3333C37 -8.11111 40.2222 1.11111 46.6667 9.33334C53.1111 17.3333 63 23.3333 76.3333 27.3333L115.667 39C135.222 44.7778 150 53.1111 160 64C170 74.8889 175 88.5556 175 105C175 118.333 171.556 130.111 164.667 140.333C158 150.333 148.556 158.222 136.333 164C124.333 169.778 110.444 172.667 94.6667 172.667ZM80.3333 202V-113H103.667V202H80.3333Z" fill="url(#paint0_linear_416_966)"/>
<defs>
<linearGradient id="paint0_linear_416_966" x1="9.58018" y1="184.59" x2="245.894" y2="53.3047" gradientUnits="userSpaceOnUse">
<stop stop-color="#F0F6FF"/>
<stop offset="1" stop-color="#FCFDFF"/>
</linearGradient>
</defs>
</svg>
