<svg width="175" height="190" viewBox="0 0 175 190" fill="none" xmlns="http://www.w3.org/2000/svg">
<path d="M94.6667 160.667C78.8889 160.667 64.5555 157.667 51.6667 151.667C38.7778 145.667 27.8889 137.667 19 127.667C10.1111 117.444 3.77778 106.222 0 94L24 85C29.7778 101.889 38.7778 114.778 51 123.667C63.2222 132.333 77.7778 136.667 94.6667 136.667C105.333 136.667 114.667 135 122.667 131.667C130.889 128.111 137.222 123.222 141.667 117C146.111 110.778 148.333 103.556 148.333 95.3334C148.333 83.1111 145 73.6667 138.333 67C131.667 60.3333 122.111 55.2222 109.667 51.6667L65 38.3333C47.4444 33.2222 33.8889 24.6667 24.3333 12.6667C15 0.666672 10.3333 -13 10.3333 -28.3333C10.3333 -41.4444 13.5556 -53 20 -63C26.4444 -73.2222 35.2222 -81.2222 46.3333 -87C57.6667 -92.7778 70.4444 -95.6667 84.6667 -95.6667C99.5555 -95.6667 112.889 -92.8889 124.667 -87.3333C136.667 -82 146.778 -74.8889 155 -66C163.222 -57.1111 169.111 -47.2222 172.667 -36.3333L149.333 -27C144 -41.6667 135.667 -52.7778 124.333 -60.3333C113.222 -67.8889 100.111 -71.6667 85 -71.6667C75.4444 -71.6667 67 -70 59.6667 -66.6667C52.5556 -63.3333 47 -58.5556 43 -52.3333C39 -46.1111 37 -38.7778 37 -30.3333C37 -20.1111 40.2222 -10.8889 46.6667 -2.66666C53.1111 5.33334 63 11.3333 76.3333 15.3333L115.667 27C135.222 32.7778 150 41.1111 160 52C170 62.8889 175 76.5556 175 93C175 106.333 171.556 118.111 164.667 128.333C158 138.333 148.556 146.222 136.333 152C124.333 157.778 110.444 160.667 94.6667 160.667ZM80.3333 190V-125H103.667V190H80.3333Z" fill="url(#paint0_linear_416_967)"/>
<defs>
<linearGradient id="paint0_linear_416_967" x1="9.58018" y1="172.59" x2="245.894" y2="41.3047" gradientUnits="userSpaceOnUse">
<stop stop-color="#F0F6FF"/>
<stop offset="1" stop-color="#FCFDFF"/>
</linearGradient>
</defs>
</svg>
